<svg width="116" height="102" viewBox="0 0 116 102" fill="none" xmlns="http://www.w3.org/2000/svg">
<rect width="109" height="102" rx="13" fill="#0B0909" fill-opacity="0.21"/>
<path d="M11.12 31V16.6H13.34L19.32 23.72L25.3 16.6H27.52V31H25.9V18.44L19.32 26.26L12.74 18.44V31H11.12ZM35.6947 31C35.2547 31 34.848 30.8933 34.4747 30.68C34.1147 30.4533 33.8214 30.16 33.5947 29.8C33.3814 29.4267 33.2747 29.02 33.2747 28.58V21.82C33.2747 21.38 33.3814 20.98 33.5947 20.62C33.8214 20.2467 34.1147 19.9533 34.4747 19.74C34.848 19.5133 35.2547 19.4 35.6947 19.4H42.6547C43.108 19.4 43.5147 19.5133 43.8747 19.74C44.248 19.9533 44.5414 20.2467 44.7547 20.62C44.9814 20.98 45.0947 21.38 45.0947 21.82V26.02H34.9147V28.58C34.9147 28.7933 34.988 28.98 35.1347 29.14C35.2947 29.2867 35.4814 29.36 35.6947 29.36H45.0947V31H35.6947ZM34.9147 24.38H43.4347V21.82C43.4347 21.6067 43.3547 21.4267 43.1947 21.28C43.048 21.12 42.868 21.04 42.6547 21.04H35.6947C35.4814 21.04 35.2947 21.12 35.1347 21.28C34.988 21.4267 34.9147 21.6067 34.9147 21.82V24.38ZM53.2823 31C52.829 31 52.4157 30.8933 52.0423 30.68C51.6823 30.4533 51.3957 30.16 51.1823 29.8C50.969 29.4267 50.8623 29.02 50.8623 28.58V15.6H52.5023V19.4H57.5223V21.04H52.5023V28.58C52.5023 28.7933 52.5757 28.98 52.7223 29.14C52.8823 29.2867 53.069 29.36 53.2823 29.36H57.5223V31H53.2823ZM65.1655 31C64.7255 31 64.3188 30.8933 63.9455 30.68C63.5855 30.4533 63.2921 30.16 63.0655 29.8C62.8521 29.4267 62.7455 29.02 62.7455 28.58V24.38H72.9055V21.82C72.9055 21.6067 72.8255 21.4267 72.6655 21.28C72.5188 21.12 72.3388 21.04 72.1255 21.04H62.7455V19.4H72.1255C72.5788 19.4 72.9855 19.5133 73.3455 19.74C73.7188 19.9533 74.0121 20.2467 74.2255 20.62C74.4521 20.98 74.5655 21.38 74.5655 21.82V31H65.1655ZM65.1655 29.36H72.9055V26.02H64.3855V28.58C64.3855 28.7933 64.4588 28.98 64.6055 29.14C64.7655 29.2867 64.9521 29.36 65.1655 29.36ZM11.18 58V43.6H22.56C23 43.6 23.4 43.7067 23.76 43.92C24.1333 44.1333 24.4267 44.4267 24.64 44.8C24.8533 45.16 24.96 45.56 24.96 46V49.06C24.96 49.2467 24.9333 49.4333 24.88 49.62C24.84 49.7933 24.78 49.96 24.7 50.12C24.9933 50.56 25.2133 50.94 25.36 51.26C25.5067 51.58 25.58 51.9067 25.58 52.24V55.6C25.58 56.04 25.4733 56.4467 25.26 56.82C25.0467 57.18 24.7533 57.4667 24.38 57.68C24.02 57.8933 23.62 58 23.18 58H11.18ZM13.58 56.38H23.18C23.3933 56.38 23.5733 56.3067 23.72 56.16C23.88 56 23.96 55.8133 23.96 55.6V52.24C23.96 52.0267 23.88 51.8467 23.72 51.7C23.5733 51.54 23.3933 51.46 23.18 51.46H13.58C13.3667 51.46 13.18 51.54 13.02 51.7C12.8733 51.8467 12.8 52.0267 12.8 52.24V55.6C12.8 55.8133 12.8733 56 13.02 56.16C13.18 56.3067 13.3667 56.38 13.58 56.38ZM13.58 49.84H22.56C22.7733 49.84 22.9533 49.7667 23.1 49.62C23.2467 49.46 23.32 49.2733 23.32 49.06V46C23.32 45.7867 23.2467 45.6067 23.1 45.46C22.9533 45.3 22.7733 45.22 22.56 45.22H13.58C13.3667 45.22 13.18 45.3 13.02 45.46C12.8733 45.6067 12.8 45.7867 12.8 46V49.06C12.8 49.2733 12.8733 49.46 13.02 49.62C13.18 49.7667 13.3667 49.84 13.58 49.84ZM33.8206 58C33.3806 58 32.974 57.8933 32.6006 57.68C32.2406 57.4533 31.9473 57.16 31.7206 56.8C31.5073 56.4267 31.4006 56.02 31.4006 55.58V46.4H33.0406V55.58C33.0406 55.7933 33.114 55.98 33.2606 56.14C33.4206 56.2867 33.6073 56.36 33.8206 56.36H40.7806C40.994 56.36 41.1806 56.2867 41.3406 56.14C41.5006 55.98 41.5806 55.7933 41.5806 55.58V46.4H43.2206V55.58C43.2206 56.02 43.1073 56.4267 42.8806 56.8C42.6673 57.16 42.374 57.4533 42.0006 57.68C41.6406 57.8933 41.234 58 40.7806 58H33.8206ZM48.8116 58V45.02C48.8116 44.5667 48.9182 44.16 49.1316 43.8C49.3449 43.4267 49.6316 43.1333 49.9916 42.92C50.3649 42.7067 50.7782 42.6 51.2316 42.6H55.4716V44.24H51.2316C51.0182 44.24 50.8316 44.32 50.6716 44.48C50.5249 44.6267 50.4516 44.8067 50.4516 45.02V46.4H55.4716V48.04H50.4516V58H48.8116ZM60.6561 58V45.02C60.6561 44.5667 60.7628 44.16 60.9761 43.8C61.1894 43.4267 61.4761 43.1333 61.8361 42.92C62.2094 42.7067 62.6228 42.6 63.0761 42.6H67.3161V44.24H63.0761C62.8628 44.24 62.6761 44.32 62.5161 44.48C62.3694 44.6267 62.2961 44.8067 62.2961 45.02V46.4H67.3161V48.04H62.2961V58H60.6561ZM74.8806 58C74.4406 58 74.034 57.8933 73.6606 57.68C73.3006 57.4533 73.0073 57.16 72.7806 56.8C72.5673 56.4267 72.4606 56.02 72.4606 55.58V48.82C72.4606 48.38 72.5673 47.98 72.7806 47.62C73.0073 47.2467 73.3006 46.9533 73.6606 46.74C74.034 46.5133 74.4406 46.4 74.8806 46.4H81.8406C82.294 46.4 82.7006 46.5133 83.0606 46.74C83.434 46.9533 83.7273 47.2467 83.9406 47.62C84.1673 47.98 84.2806 48.38 84.2806 48.82V53.02H74.1006V55.58C74.1006 55.7933 74.174 55.98 74.3206 56.14C74.4806 56.2867 74.6673 56.36 74.8806 56.36H84.2806V58H74.8806ZM74.1006 51.38H82.6206V48.82C82.6206 48.6067 82.5406 48.4267 82.3806 48.28C82.234 48.12 82.054 48.04 81.8406 48.04H74.8806C74.6673 48.04 74.4806 48.12 74.3206 48.28C74.174 48.4267 74.1006 48.6067 74.1006 48.82V51.38ZM89.9306 58V48.82C89.9306 48.38 90.0373 47.98 90.2506 47.62C90.4773 47.2467 90.7706 46.9533 91.1306 46.74C91.504 46.5133 91.9106 46.4 92.3506 46.4H98.8706V48.04H92.3506C92.1373 48.04 91.9506 48.12 91.7906 48.28C91.644 48.4267 91.5706 48.6067 91.5706 48.82V58H89.9306ZM11.12 85V70.62H23.12C23.56 70.62 23.96 70.7333 24.32 70.96C24.6933 71.1733 24.9867 71.46 25.2 71.82C25.4133 72.18 25.52 72.58 25.52 73.02V77.24C25.52 77.68 25.4133 78.08 25.2 78.44C24.9867 78.8 24.6933 79.0933 24.32 79.32C23.96 79.5333 23.56 79.64 23.12 79.64H12.74V85H11.12ZM13.52 78H23.12C23.3333 78 23.5133 77.9267 23.66 77.78C23.82 77.6333 23.9 77.4533 23.9 77.24V73.02C23.9 72.8067 23.82 72.6267 23.66 72.48C23.5133 72.32 23.3333 72.24 23.12 72.24H13.52C13.3067 72.24 13.12 72.32 12.96 72.48C12.8133 72.6267 12.74 72.8067 12.74 73.02V77.24C12.74 77.4533 12.8133 77.6333 12.96 77.78C13.12 77.9267 13.3067 78 13.52 78ZM32.9803 85C32.5403 85 32.1336 84.8933 31.7603 84.68C31.4003 84.4533 31.107 84.16 30.8803 83.8C30.667 83.4267 30.5603 83.02 30.5603 82.58V78.38H40.7203V75.82C40.7203 75.6067 40.6403 75.4267 40.4803 75.28C40.3336 75.12 40.1536 75.04 39.9403 75.04H30.5603V73.4H39.9403C40.3936 73.4 40.8003 73.5133 41.1603 73.74C41.5336 73.9533 41.827 74.2467 42.0403 74.62C42.267 74.98 42.3803 75.38 42.3803 75.82V85H32.9803ZM32.9803 83.36H40.7203V80.02H32.2003V82.58C32.2003 82.7933 32.2736 82.98 32.4203 83.14C32.5803 83.2867 32.767 83.36 32.9803 83.36ZM50.3517 85C49.9117 85 49.5051 84.8933 49.1317 84.68C48.7717 84.4533 48.4784 84.16 48.2517 83.8C48.0384 83.4267 47.9317 83.02 47.9317 82.58V75.82C47.9317 75.38 48.0384 74.98 48.2517 74.62C48.4784 74.2467 48.7717 73.9533 49.1317 73.74C49.5051 73.5133 49.9117 73.4 50.3517 73.4H59.7117V75.04H50.3517C50.1384 75.04 49.9517 75.12 49.7917 75.28C49.6451 75.4267 49.5717 75.6067 49.5717 75.82V82.58C49.5717 82.7933 49.6451 82.98 49.7917 83.14C49.9517 83.2867 50.1384 83.36 50.3517 83.36H59.7517V85H50.3517ZM65.2073 85V69.6H66.8473V78.38H70.0473L74.6073 73.4H76.7673V73.42L71.5073 79.2L76.7473 84.98V85H74.6073L70.0473 80.02H66.8473V85H65.2073Z" fill="white"/>
</svg>
